<svg xmlns="http://www.w3.org/2000/svg" viewBox="0 0 1024 1024" fill="none">
  <rect width="1024" height="1024" rx="220" fill="#09090b"/>
  <g transform="translate(-5, 50) scale(22)">
    <g transform="translate(6,0)">
      <path fill="white" d="M5 17.3a4.5 4.5 0 1 1 0 9 4.5 4.5 0 0 1 0-9m5.9-11.6a4.5 4.5 0 0 1 4.4 5.4c-.3 1.4-.6 3 .2 4.2l1.3 1.9.3.2.3-.2 1.3-1.9c.8-1.2.5-2.7.2-4.1a4.5 4.5 0 1 1 8.8.1c-.3 1.3-.6 2.7 0 3.9l1.3 2v.1a4.5 4.5 0 1 1-4.3 3.4c.3-1.3.6-2.7 0-3.9l-1.2-2h-.2L22 16.5c-.8 1.2-.5 2.8-.2 4.2a4.5 4.5 0 1 1-8.8.3q.5-2-.4-3.8l-.9-1.3q-.9-1.2-2.4-1.6a4.5 4.5 0 0 1 1.6-8.7"/>
    </g>
    <text x="23.5" y="35" fill="#00FF41" font-family="'Lucida Console','Courier New',monospace" font-size="10" font-weight="700" text-anchor="middle">code</text>
  </g>
</svg>
